<svg width="960" height="500" version="1.1" xmlns="http://www.w3.org/2000/svg"><circle cx="200" cy="200" opacity="0" r="100" fill="none" stroke="black"></circle><circle cx="200" cy="100" opacity="1" r="5" fill="black"></circle><text x="200" y="100" font-family="sans-serif" font-size="20px" fill="black">ken</text><circle cx="238.26834323650897" cy="107.61204674887132" opacity="1" r="5" fill="black"></circle><text x="238.26834323650897" y="107.61204674887132" font-family="sans-serif" font-size="20px" fill="black">andy</text><circle cx="270.71067811865476" cy="129.28932188134524" opacity="1" r="5" fill="black"></circle><text x="270.71067811865476" y="129.28932188134524" font-family="sans-serif" font-size="20px" fill="black">fred</text><circle cx="292.3879532511287" cy="161.731656763491" opacity="1" r="5" fill="black"></circle><text x="292.3879532511287" y="161.731656763491" font-family="sans-serif" font-size="20px" fill="black">vanda</text><circle cx="300" cy="200" opacity="1" r="5" fill="black"></circle><text x="300" y="200" font-family="sans-serif" font-size="20px" fill="black">ryan</text><circle cx="292.3879532511287" cy="238.26834323650897" opacity="1" r="5" fill="black"></circle><text x="292.3879532511287" y="238.26834323650897" font-family="sans-serif" font-size="20px" fill="black">florence</text><circle cx="270.71067811865476" cy="270.71067811865476" opacity="1" r="5" fill="black"></circle><text x="270.71067811865476" y="270.71067811865476" font-family="sans-serif" font-size="20px" fill="black">nicky</text><circle cx="238.268343236509" cy="292.3879532511287" opacity="1" r="5" fill="black"></circle><text x="238.268343236509" y="292.3879532511287" font-family="sans-serif" font-size="20px" fill="black">ollie</text><circle cx="200" cy="300" opacity="1" r="5" fill="black"></circle><text x="200" y="300" font-family="sans-serif" font-size="20px" fill="black">richard</text><circle cx="161.73165676349103" cy="292.3879532511287" opacity="1" r="5" fill="black"></circle><text x="161.73165676349103" y="292.3879532511287" font-family="sans-serif" font-size="20px" fill="black">alex</text><circle cx="129.28932188134524" cy="270.71067811865476" opacity="1" r="5" fill="black"></circle><text x="129.28932188134524" y="270.71067811865476" font-family="sans-serif" font-size="20px" fill="black">chris</text><circle cx="107.61204674887135" cy="238.26834323650903" opacity="1" r="5" fill="black"></circle><text x="107.61204674887135" y="238.26834323650903" font-family="sans-serif" font-size="20px" fill="black">tippers</text><circle cx="100" cy="200.00000000000003" opacity="1" r="5" fill="black"></circle><text x="100" y="200.00000000000003" font-family="sans-serif" font-size="20px" fill="black">james</text><circle cx="107.61204674887134" cy="161.731656763491" opacity="1" r="5" fill="black"></circle><text x="107.61204674887134" y="161.731656763491" font-family="sans-serif" font-size="20px" fill="black">ed</text><circle cx="129.28932188134524" cy="129.28932188134524" opacity="1" r="5" fill="black"></circle><text x="129.28932188134524" y="129.28932188134524" font-family="sans-serif" font-size="20px" fill="black">dave</text><circle cx="161.73165676349095" cy="107.61204674887135" opacity="1" r="5" fill="black"></circle><text x="161.73165676349095" y="107.61204674887135" font-family="sans-serif" font-size="20px" fill="black">greg</text><path d="M161.73165676349103,292.3879532511287L107.61204674887134,161.731656763491" stroke="black" fill="transparent"></path><path d="M107.61204674887134,161.731656763491L270.71067811865476,270.71067811865476" stroke="black" fill="transparent"></path><path d="M270.71067811865476,270.71067811865476L292.3879532511287,238.26834323650897" stroke="black" fill="transparent"></path><path d="M292.3879532511287,238.26834323650897L100,200.00000000000003" stroke="black" fill="transparent"></path><path d="M100,200.00000000000003L292.3879532511287,161.731656763491" stroke="black" fill="transparent"></path><path d="M292.3879532511287,161.731656763491L238.268343236509,292.3879532511287" stroke="black" fill="transparent"></path><path d="M238.268343236509,292.3879532511287L200,300" stroke="black" fill="transparent"></path><path d="M200,300L107.61204674887135,238.26834323650903" stroke="black" fill="transparent"></path><path d="M107.61204674887135,238.26834323650903L238.26834323650897,107.61204674887132" stroke="black" fill="transparent"></path><path d="M238.26834323650897,107.61204674887132L200,100" stroke="black" fill="transparent"></path><path d="M200,100L270.71067811865476,129.28932188134524" stroke="black" fill="transparent"></path><path d="M270.71067811865476,129.28932188134524L129.28932188134524,270.71067811865476" stroke="black" fill="transparent"></path><path d="M129.28932188134524,270.71067811865476L129.28932188134524,129.28932188134524" stroke="black" fill="transparent"></path><path d="M129.28932188134524,129.28932188134524L300,200" stroke="black" fill="transparent"></path><path d="M300,200L161.73165676349095,107.61204674887135" stroke="black" fill="transparent"></path></svg>