<svg width="960" height="500" version="1.1" xmlns="http://www.w3.org/2000/svg"><circle cx="200" cy="200" opacity="0" r="100" fill="none" stroke="black"></circle><circle cx="200" cy="100" opacity="1" r="5" fill="black"></circle><text x="200" y="100" font-family="sans-serif" font-size="20px" fill="black">ken</text><circle cx="264.27876096865396" cy="123.39555568810219" opacity="1" r="5" fill="black"></circle><text x="264.27876096865396" y="123.39555568810219" font-family="sans-serif" font-size="20px" fill="black">fred</text><circle cx="298.4807753012208" cy="182.63518223330695" opacity="1" r="5" fill="black"></circle><text x="298.4807753012208" y="182.63518223330695" font-family="sans-serif" font-size="20px" fill="black">greg</text><circle cx="286.6025403784439" cy="249.99999999999997" opacity="1" r="5" fill="black"></circle><text x="286.6025403784439" y="249.99999999999997" font-family="sans-serif" font-size="20px" fill="black">ed</text><circle cx="234.20201433256688" cy="293.9692620785908" opacity="1" r="5" fill="black"></circle><text x="234.20201433256688" y="293.9692620785908" font-family="sans-serif" font-size="20px" fill="black">james</text><circle cx="165.79798566743312" cy="293.9692620785909" opacity="1" r="5" fill="black"></circle><text x="165.79798566743312" y="293.9692620785909" font-family="sans-serif" font-size="20px" fill="black">ryan</text><circle cx="113.39745962155615" cy="250.00000000000006" opacity="1" r="5" fill="black"></circle><text x="113.39745962155615" y="250.00000000000006" font-family="sans-serif" font-size="20px" fill="black">florence</text><circle cx="101.51922469877918" cy="182.635182233307" opacity="1" r="5" fill="black"></circle><text x="101.51922469877918" y="182.635182233307" font-family="sans-serif" font-size="20px" fill="black">alex</text><circle cx="135.72123903134604" cy="123.39555568810222" opacity="1" r="5" fill="black"></circle><text x="135.72123903134604" y="123.39555568810222" font-family="sans-serif" font-size="20px" fill="black">vanda</text><path d="M101.51922469877918,182.635182233307L165.79798566743312,293.9692620785909" stroke="black" fill="transparent"></path><path d="M165.79798566743312,293.9692620785909L113.39745962155615,250.00000000000006" stroke="black" fill="transparent"></path><path d="M113.39745962155615,250.00000000000006L298.4807753012208,182.63518223330695" stroke="black" fill="transparent"></path><path d="M298.4807753012208,182.63518223330695L286.6025403784439,249.99999999999997" stroke="black" fill="transparent"></path><path d="M286.6025403784439,249.99999999999997L135.72123903134604,123.39555568810222" stroke="black" fill="transparent"></path><path d="M135.72123903134604,123.39555568810222L234.20201433256688,293.9692620785908" stroke="black" fill="transparent"></path><path d="M234.20201433256688,293.9692620785908L200,100" stroke="black" fill="transparent"></path><path d="M200,100L264.27876096865396,123.39555568810219" stroke="black" fill="transparent"></path></svg>