<svg width="960" height="500" version="1.1" xmlns="http://www.w3.org/2000/svg"><circle cx="200" cy="200" opacity="0" r="100" fill="none" stroke="black"></circle><circle cx="200" cy="100" opacity="1" r="5" fill="black"></circle><text x="200" y="100" font-family="sans-serif" font-size="20px" fill="black">ken</text><circle cx="240.67366430758" cy="108.64545423573992" opacity="1" r="5" fill="black"></circle><text x="240.67366430758" y="108.64545423573992" font-family="sans-serif" font-size="20px" fill="black">fred</text><circle cx="274.31448254773943" cy="133.0869393641142" opacity="1" r="5" fill="black"></circle><text x="274.31448254773943" y="133.0869393641142" font-family="sans-serif" font-size="20px" fill="black">nicky</text><circle cx="295.10565162951536" cy="169.09830056250524" opacity="1" r="5" fill="black"></circle><text x="295.10565162951536" y="169.09830056250524" font-family="sans-serif" font-size="20px" fill="black">vanda</text><circle cx="299.45218953682735" cy="210.45284632676533" opacity="1" r="5" fill="black"></circle><text x="299.45218953682735" y="210.45284632676533" font-family="sans-serif" font-size="20px" fill="black">ryan</text><circle cx="286.6025403784439" cy="249.99999999999997" opacity="1" r="5" fill="black"></circle><text x="286.6025403784439" y="249.99999999999997" font-family="sans-serif" font-size="20px" fill="black">ed</text><circle cx="258.7785252292473" cy="280.9016994374947" opacity="1" r="5" fill="black"></circle><text x="258.7785252292473" y="280.9016994374947" font-family="sans-serif" font-size="20px" fill="black">tippers</text><circle cx="220.79116908177596" cy="297.81476007338057" opacity="1" r="5" fill="black"></circle><text x="220.79116908177596" y="297.81476007338057" font-family="sans-serif" font-size="20px" fill="black">richard</text><circle cx="179.2088309182241" cy="297.81476007338057" opacity="1" r="5" fill="black"></circle><text x="179.2088309182241" y="297.81476007338057" font-family="sans-serif" font-size="20px" fill="black">alex</text><circle cx="141.2214747707527" cy="280.90169943749476" opacity="1" r="5" fill="black"></circle><text x="141.2214747707527" y="280.90169943749476" font-family="sans-serif" font-size="20px" fill="black">dave</text><circle cx="113.39745962155615" cy="250.00000000000006" opacity="1" r="5" fill="black"></circle><text x="113.39745962155615" y="250.00000000000006" font-family="sans-serif" font-size="20px" fill="black">florence</text><circle cx="100.54781046317267" cy="210.4528463267654" opacity="1" r="5" fill="black"></circle><text x="100.54781046317267" y="210.4528463267654" font-family="sans-serif" font-size="20px" fill="black">james</text><circle cx="104.89434837048464" cy="169.09830056250527" opacity="1" r="5" fill="black"></circle><text x="104.89434837048464" y="169.09830056250527" font-family="sans-serif" font-size="20px" fill="black">greg</text><circle cx="125.68551745226054" cy="133.08693936411422" opacity="1" r="5" fill="black"></circle><text x="125.68551745226054" y="133.08693936411422" font-family="sans-serif" font-size="20px" fill="black">andy</text><circle cx="159.32633569241992" cy="108.64545423573995" opacity="1" r="5" fill="black"></circle><text x="159.32633569241992" y="108.64545423573995" font-family="sans-serif" font-size="20px" fill="black">ollie</text><path d="M179.2088309182241,297.81476007338057L299.45218953682735,210.45284632676533" stroke="black" fill="transparent"></path><path d="M299.45218953682735,210.45284632676533L104.89434837048464,169.09830056250527" stroke="black" fill="transparent"></path><path d="M104.89434837048464,169.09830056250527L258.7785252292473,280.9016994374947" stroke="black" fill="transparent"></path><path d="M258.7785252292473,280.9016994374947L274.31448254773943,133.0869393641142" stroke="black" fill="transparent"></path><path d="M274.31448254773943,133.0869393641142L240.67366430758,108.64545423573992" stroke="black" fill="transparent"></path><path d="M240.67366430758,108.64545423573992L220.79116908177596,297.81476007338057" stroke="black" fill="transparent"></path><path d="M220.79116908177596,297.81476007338057L141.2214747707527,280.90169943749476" stroke="black" fill="transparent"></path><path d="M141.2214747707527,280.90169943749476L113.39745962155615,250.00000000000006" stroke="black" fill="transparent"></path><path d="M113.39745962155615,250.00000000000006L100.54781046317267,210.4528463267654" stroke="black" fill="transparent"></path><path d="M100.54781046317267,210.4528463267654L286.6025403784439,249.99999999999997" stroke="black" fill="transparent"></path><path d="M286.6025403784439,249.99999999999997L295.10565162951536,169.09830056250524" stroke="black" fill="transparent"></path><path d="M295.10565162951536,169.09830056250524L125.68551745226054,133.08693936411422" stroke="black" fill="transparent"></path><path d="M125.68551745226054,133.08693936411422L200,100" stroke="black" fill="transparent"></path><path d="M200,100L159.32633569241992,108.64545423573995" stroke="black" fill="transparent"></path></svg>