<svg width="960" height="500" version="1.1" xmlns="http://www.w3.org/2000/svg"><circle cx="200" cy="200" opacity="0" r="100" fill="none" stroke="black"></circle><circle cx="200" cy="100" opacity="1" r="5" fill="black"></circle><text x="200" y="100" font-family="sans-serif" font-size="20px" fill="black">ken</text><circle cx="270.71067811865476" cy="129.28932188134524" opacity="1" r="5" fill="black"></circle><text x="270.71067811865476" y="129.28932188134524" font-family="sans-serif" font-size="20px" fill="black">greg</text><circle cx="300" cy="200" opacity="1" r="5" fill="black"></circle><text x="300" y="200" font-family="sans-serif" font-size="20px" fill="black">ryan</text><circle cx="270.71067811865476" cy="270.71067811865476" opacity="1" r="5" fill="black"></circle><text x="270.71067811865476" y="270.71067811865476" font-family="sans-serif" font-size="20px" fill="black">vanda</text><circle cx="200" cy="300" opacity="1" r="5" fill="black"></circle><text x="200" y="300" font-family="sans-serif" font-size="20px" fill="black">ed</text><circle cx="129.28932188134524" cy="270.71067811865476" opacity="1" r="5" fill="black"></circle><text x="129.28932188134524" y="270.71067811865476" font-family="sans-serif" font-size="20px" fill="black">chris</text><circle cx="100" cy="200.00000000000003" opacity="1" r="5" fill="black"></circle><text x="100" y="200.00000000000003" font-family="sans-serif" font-size="20px" fill="black">florence</text><circle cx="129.28932188134524" cy="129.28932188134524" opacity="1" r="5" fill="black"></circle><text x="129.28932188134524" y="129.28932188134524" font-family="sans-serif" font-size="20px" fill="black">james</text><path d="M300,200L270.71067811865476,129.28932188134524" stroke="black" fill="transparent"></path><path d="M270.71067811865476,129.28932188134524L200,100" stroke="black" fill="transparent"></path><path d="M200,100L129.28932188134524,129.28932188134524" stroke="black" fill="transparent"></path><path d="M129.28932188134524,129.28932188134524L200,300" stroke="black" fill="transparent"></path><path d="M200,300L100,200.00000000000003" stroke="black" fill="transparent"></path><path d="M100,200.00000000000003L129.28932188134524,270.71067811865476" stroke="black" fill="transparent"></path><path d="M129.28932188134524,270.71067811865476L270.71067811865476,270.71067811865476" stroke="black" fill="transparent"></path></svg>