<svg width="960" height="500" version="1.1" xmlns="http://www.w3.org/2000/svg"><circle cx="200" cy="200" opacity="0" r="100" fill="none" stroke="black"></circle><circle cx="200" cy="100" opacity="1" r="5" fill="black"></circle><text x="200" y="100" font-family="sans-serif" font-size="20px" fill="black">ken</text><circle cx="278.183148246803" cy="137.65101981412664" opacity="1" r="5" fill="black"></circle><text x="278.183148246803" y="137.65101981412664" font-family="sans-serif" font-size="20px" fill="black">inga</text><circle cx="297.49279121818233" cy="222.25209339563145" opacity="1" r="5" fill="black"></circle><text x="297.49279121818233" y="222.25209339563145" font-family="sans-serif" font-size="20px" fill="black">florence</text><circle cx="243.38837391175582" cy="290.0968867902419" opacity="1" r="5" fill="black"></circle><text x="243.38837391175582" y="290.0968867902419" font-family="sans-serif" font-size="20px" fill="black">alex</text><circle cx="156.6116260882442" cy="290.0968867902419" opacity="1" r="5" fill="black"></circle><text x="156.6116260882442" y="290.0968867902419" font-family="sans-serif" font-size="20px" fill="black">fred</text><circle cx="102.50720878181764" cy="222.25209339563145" opacity="1" r="5" fill="black"></circle><text x="102.50720878181764" y="222.25209339563145" font-family="sans-serif" font-size="20px" fill="black">emma</text><circle cx="121.81685175319701" cy="137.65101981412667" opacity="1" r="5" fill="black"></circle><text x="121.81685175319701" y="137.65101981412667" font-family="sans-serif" font-size="20px" fill="black">ryan</text><path d="M243.38837391175582,290.0968867902419L297.49279121818233,222.25209339563145" stroke="black" fill="transparent"></path><path d="M297.49279121818233,222.25209339563145L278.183148246803,137.65101981412664" stroke="black" fill="transparent"></path><path d="M278.183148246803,137.65101981412664L200,100" stroke="black" fill="transparent"></path><path d="M200,100L121.81685175319701,137.65101981412667" stroke="black" fill="transparent"></path><path d="M121.81685175319701,137.65101981412667L102.50720878181764,222.25209339563145" stroke="black" fill="transparent"></path><path d="M102.50720878181764,222.25209339563145L156.6116260882442,290.0968867902419" stroke="black" fill="transparent"></path></svg>