<svg width="960" height="500" version="1.1" xmlns="http://www.w3.org/2000/svg"><circle cx="200" cy="200" opacity="0" r="100" fill="none" stroke="black"></circle><circle cx="200" cy="100" opacity="1" r="5" fill="black"></circle><text x="200" y="100" font-family="sans-serif" font-size="20px" fill="black">ken</text><circle cx="258.7785252292473" cy="119.09830056250526" opacity="1" r="5" fill="black"></circle><text x="258.7785252292473" y="119.09830056250526" font-family="sans-serif" font-size="20px" fill="black">inga</text><circle cx="295.10565162951536" cy="169.09830056250524" opacity="1" r="5" fill="black"></circle><text x="295.10565162951536" y="169.09830056250524" font-family="sans-serif" font-size="20px" fill="black">ed</text><circle cx="295.10565162951536" cy="230.90169943749473" opacity="1" r="5" fill="black"></circle><text x="295.10565162951536" y="230.90169943749473" font-family="sans-serif" font-size="20px" fill="black">florence</text><circle cx="258.7785252292473" cy="280.9016994374947" opacity="1" r="5" fill="black"></circle><text x="258.7785252292473" y="280.9016994374947" font-family="sans-serif" font-size="20px" fill="black">fred</text><circle cx="200" cy="300" opacity="1" r="5" fill="black"></circle><text x="200" y="300" font-family="sans-serif" font-size="20px" fill="black">ryan</text><circle cx="141.2214747707527" cy="280.90169943749476" opacity="1" r="5" fill="black"></circle><text x="141.2214747707527" y="280.90169943749476" font-family="sans-serif" font-size="20px" fill="black">emma</text><circle cx="104.89434837048465" cy="230.90169943749476" opacity="1" r="5" fill="black"></circle><text x="104.89434837048465" y="230.90169943749476" font-family="sans-serif" font-size="20px" fill="black">vanda</text><circle cx="104.89434837048464" cy="169.09830056250527" opacity="1" r="5" fill="black"></circle><text x="104.89434837048464" y="169.09830056250527" font-family="sans-serif" font-size="20px" fill="black">alex</text><circle cx="141.22147477075265" cy="119.09830056250527" opacity="1" r="5" fill="black"></circle><text x="141.22147477075265" y="119.09830056250527" font-family="sans-serif" font-size="20px" fill="black">chris</text><path d="M104.89434837048464,169.09830056250527L141.22147477075265,119.09830056250527" stroke="black" fill="transparent"></path><path d="M141.22147477075265,119.09830056250527L104.89434837048465,230.90169943749476" stroke="black" fill="transparent"></path><path d="M104.89434837048465,230.90169943749476L200,100" stroke="black" fill="transparent"></path><path d="M200,100L141.2214747707527,280.90169943749476" stroke="black" fill="transparent"></path><path d="M141.2214747707527,280.90169943749476L258.7785252292473,119.09830056250526" stroke="black" fill="transparent"></path><path d="M258.7785252292473,119.09830056250526L200,300" stroke="black" fill="transparent"></path><path d="M200,300L295.10565162951536,169.09830056250524" stroke="black" fill="transparent"></path><path d="M295.10565162951536,169.09830056250524L295.10565162951536,230.90169943749473" stroke="black" fill="transparent"></path><path d="M295.10565162951536,230.90169943749473L258.7785252292473,280.9016994374947" stroke="black" fill="transparent"></path></svg>