<svg width="960" height="500" version="1.1" xmlns="http://www.w3.org/2000/svg"><circle cx="200" cy="200" opacity="0" r="100" fill="none" stroke="black"></circle><circle cx="200" cy="100" opacity="1" r="5" fill="black"></circle><text x="200" y="100" font-family="sans-serif" font-size="20px" fill="black">ken</text><circle cx="254.06408174555975" cy="115.87464671688188" opacity="1" r="5" fill="black"></circle><text x="254.06408174555975" y="115.87464671688188" font-family="sans-serif" font-size="20px" fill="black">florence</text><circle cx="290.96319953545185" cy="158.45849869981134" opacity="1" r="5" fill="black"></circle><text x="290.96319953545185" y="158.45849869981134" font-family="sans-serif" font-size="20px" fill="black">fred</text><circle cx="298.9821441880933" cy="214.2314838273285" opacity="1" r="5" fill="black"></circle><text x="298.9821441880933" y="214.2314838273285" font-family="sans-serif" font-size="20px" fill="black">greg</text><circle cx="275.57495743542586" cy="265.4860733945285" opacity="1" r="5" fill="black"></circle><text x="275.57495743542586" y="265.4860733945285" font-family="sans-serif" font-size="20px" fill="black">ryan</text><circle cx="228.17325568414296" cy="295.94929736144974" opacity="1" r="5" fill="black"></circle><text x="228.17325568414296" y="295.94929736144974" font-family="sans-serif" font-size="20px" fill="black">emma</text><circle cx="171.82674431585707" cy="295.94929736144974" opacity="1" r="5" fill="black"></circle><text x="171.82674431585707" y="295.94929736144974" font-family="sans-serif" font-size="20px" fill="black">vanda</text><circle cx="124.42504256457418" cy="265.4860733945285" opacity="1" r="5" fill="black"></circle><text x="124.42504256457418" y="265.4860733945285" font-family="sans-serif" font-size="20px" fill="black">alex</text><circle cx="101.01785581190673" cy="214.23148382732853" opacity="1" r="5" fill="black"></circle><text x="101.01785581190673" y="214.23148382732853" font-family="sans-serif" font-size="20px" fill="black">chris</text><circle cx="109.03680046454815" cy="158.4584986998114" opacity="1" r="5" fill="black"></circle><text x="109.03680046454815" y="158.4584986998114" font-family="sans-serif" font-size="20px" fill="black">ed</text><circle cx="145.93591825444025" cy="115.87464671688188" opacity="1" r="5" fill="black"></circle><text x="145.93591825444025" y="115.87464671688188" font-family="sans-serif" font-size="20px" fill="black">james</text><path d="M124.42504256457418,265.4860733945285L145.93591825444025,115.87464671688188" stroke="black" fill="transparent"></path><path d="M145.93591825444025,115.87464671688188L275.57495743542586,265.4860733945285" stroke="black" fill="transparent"></path><path d="M275.57495743542586,265.4860733945285L200,100" stroke="black" fill="transparent"></path><path d="M200,100L171.82674431585707,295.94929736144974" stroke="black" fill="transparent"></path><path d="M171.82674431585707,295.94929736144974L228.17325568414296,295.94929736144974" stroke="black" fill="transparent"></path><path d="M228.17325568414296,295.94929736144974L109.03680046454815,158.4584986998114" stroke="black" fill="transparent"></path><path d="M109.03680046454815,158.4584986998114L101.01785581190673,214.23148382732853" stroke="black" fill="transparent"></path><path d="M101.01785581190673,214.23148382732853L298.9821441880933,214.2314838273285" stroke="black" fill="transparent"></path><path d="M298.9821441880933,214.2314838273285L290.96319953545185,158.45849869981134" stroke="black" fill="transparent"></path><path d="M290.96319953545185,158.45849869981134L254.06408174555975,115.87464671688188" stroke="black" fill="transparent"></path></svg>