<svg width="960" height="500" version="1.1" xmlns="http://www.w3.org/2000/svg"><circle cx="200" cy="200" opacity="0" r="100" fill="none" stroke="black"></circle><circle cx="200" cy="100" opacity="1" r="5" fill="black"></circle><text x="200" y="100" font-family="sans-serif" font-size="20px" fill="black">ken</text><circle cx="246.47231720437685" cy="111.45439743467901" opacity="1" r="5" fill="black"></circle><text x="246.47231720437685" y="111.45439743467901" font-family="sans-serif" font-size="20px" fill="black">fred</text><circle cx="282.29838658936563" cy="143.1935253268844" opacity="1" r="5" fill="black"></circle><text x="282.29838658936563" y="143.1935253268844" font-family="sans-serif" font-size="20px" fill="black">vanda</text><circle cx="299.27088740980537" cy="187.94633197446768" opacity="1" r="5" fill="black"></circle><text x="299.27088740980537" y="187.94633197446768" font-family="sans-serif" font-size="20px" fill="black">ryan</text><circle cx="293.5016242685415" cy="235.46048870425355" opacity="1" r="5" fill="black"></circle><text x="293.5016242685415" y="235.46048870425355" font-family="sans-serif" font-size="20px" fill="black">nicky</text><circle cx="266.31226582407953" cy="274.8510748171101" opacity="1" r="5" fill="black"></circle><text x="266.31226582407953" y="274.8510748171101" font-family="sans-serif" font-size="20px" fill="black">ed</text><circle cx="223.93156642875581" cy="297.0941817426052" opacity="1" r="5" fill="black"></circle><text x="223.93156642875581" y="297.0941817426052" font-family="sans-serif" font-size="20px" fill="black">alex</text><circle cx="176.06843357124427" cy="297.0941817426052" opacity="1" r="5" fill="black"></circle><text x="176.06843357124427" y="297.0941817426052" font-family="sans-serif" font-size="20px" fill="black">chris</text><circle cx="133.6877341759205" cy="274.85107481711015" opacity="1" r="5" fill="black"></circle><text x="133.6877341759205" y="274.85107481711015" font-family="sans-serif" font-size="20px" fill="black">james</text><circle cx="106.49837573145852" cy="235.46048870425358" opacity="1" r="5" fill="black"></circle><text x="106.49837573145852" y="235.46048870425358" font-family="sans-serif" font-size="20px" fill="black">greg</text><circle cx="100.72911259019459" cy="187.94633197446777" opacity="1" r="5" fill="black"></circle><text x="100.72911259019459" y="187.94633197446777" font-family="sans-serif" font-size="20px" fill="black">dave</text><circle cx="117.70161341063434" cy="143.19352532688444" opacity="1" r="5" fill="black"></circle><text x="117.70161341063434" y="143.19352532688444" font-family="sans-serif" font-size="20px" fill="black">andy</text><circle cx="153.5276827956231" cy="111.45439743467904" opacity="1" r="5" fill="black"></circle><text x="153.5276827956231" y="111.45439743467904" font-family="sans-serif" font-size="20px" fill="black">ollie</text><path d="M223.93156642875581,297.0941817426052L100.72911259019459,187.94633197446777" stroke="black" fill="transparent"></path><path d="M100.72911259019459,187.94633197446777L293.5016242685415,235.46048870425355" stroke="black" fill="transparent"></path><path d="M293.5016242685415,235.46048870425355L106.49837573145852,235.46048870425358" stroke="black" fill="transparent"></path><path d="M106.49837573145852,235.46048870425358L299.27088740980537,187.94633197446768" stroke="black" fill="transparent"></path><path d="M299.27088740980537,187.94633197446768L133.6877341759205,274.85107481711015" stroke="black" fill="transparent"></path><path d="M133.6877341759205,274.85107481711015L176.06843357124427,297.0941817426052" stroke="black" fill="transparent"></path><path d="M176.06843357124427,297.0941817426052L266.31226582407953,274.8510748171101" stroke="black" fill="transparent"></path><path d="M266.31226582407953,274.8510748171101L200,100" stroke="black" fill="transparent"></path><path d="M200,100L246.47231720437685,111.45439743467901" stroke="black" fill="transparent"></path><path d="M246.47231720437685,111.45439743467901L117.70161341063434,143.19352532688444" stroke="black" fill="transparent"></path><path d="M117.70161341063434,143.19352532688444L282.29838658936563,143.1935253268844" stroke="black" fill="transparent"></path><path d="M282.29838658936563,143.1935253268844L153.5276827956231,111.45439743467904" stroke="black" fill="transparent"></path></svg>