<svg width="960" height="500" version="1.1" xmlns="http://www.w3.org/2000/svg"><circle cx="200" cy="200" opacity="0" r="100" fill="none" stroke="black"></circle><circle cx="200" cy="100" opacity="1" r="5" fill="black"></circle><text x="200" y="100" font-family="sans-serif" font-size="20px" fill="black">ken</text><circle cx="250" cy="113.39745962155612" opacity="1" r="5" fill="black"></circle><text x="250" y="113.39745962155612" font-family="sans-serif" font-size="20px" fill="black">alex</text><circle cx="286.60254037844385" cy="150" opacity="1" r="5" fill="black"></circle><text x="286.60254037844385" y="150" font-family="sans-serif" font-size="20px" fill="black">greg</text><circle cx="300" cy="200" opacity="1" r="5" fill="black"></circle><text x="300" y="200" font-family="sans-serif" font-size="20px" fill="black">fred</text><circle cx="286.6025403784439" cy="249.99999999999997" opacity="1" r="5" fill="black"></circle><text x="286.6025403784439" y="249.99999999999997" font-family="sans-serif" font-size="20px" fill="black">james</text><circle cx="250.00000000000003" cy="286.60254037844385" opacity="1" r="5" fill="black"></circle><text x="250.00000000000003" y="286.60254037844385" font-family="sans-serif" font-size="20px" fill="black">ryan</text><circle cx="200" cy="300" opacity="1" r="5" fill="black"></circle><text x="200" y="300" font-family="sans-serif" font-size="20px" fill="black">florence</text><circle cx="150.00000000000003" cy="286.6025403784439" opacity="1" r="5" fill="black"></circle><text x="150.00000000000003" y="286.6025403784439" font-family="sans-serif" font-size="20px" fill="black">emma</text><circle cx="113.39745962155615" cy="250.00000000000006" opacity="1" r="5" fill="black"></circle><text x="113.39745962155615" y="250.00000000000006" font-family="sans-serif" font-size="20px" fill="black">tippers</text><circle cx="100" cy="200.00000000000003" opacity="1" r="5" fill="black"></circle><text x="100" y="200.00000000000003" font-family="sans-serif" font-size="20px" fill="black">chris</text><circle cx="113.3974596215561" cy="150.00000000000006" opacity="1" r="5" fill="black"></circle><text x="113.3974596215561" y="150.00000000000006" font-family="sans-serif" font-size="20px" fill="black">inga</text><circle cx="149.99999999999994" cy="113.39745962155617" opacity="1" r="5" fill="black"></circle><text x="149.99999999999994" y="113.39745962155617" font-family="sans-serif" font-size="20px" fill="black">ed</text><path d="M250,113.39745962155612L113.3974596215561,150.00000000000006" stroke="black" fill="transparent"></path><path d="M113.3974596215561,150.00000000000006L250.00000000000003,286.60254037844385" stroke="black" fill="transparent"></path><path d="M250.00000000000003,286.60254037844385L149.99999999999994,113.39745962155617" stroke="black" fill="transparent"></path><path d="M149.99999999999994,113.39745962155617L200,300" stroke="black" fill="transparent"></path><path d="M200,300L100,200.00000000000003" stroke="black" fill="transparent"></path><path d="M100,200.00000000000003L150.00000000000003,286.6025403784439" stroke="black" fill="transparent"></path><path d="M150.00000000000003,286.6025403784439L286.6025403784439,249.99999999999997" stroke="black" fill="transparent"></path><path d="M286.6025403784439,249.99999999999997L200,100" stroke="black" fill="transparent"></path><path d="M200,100L113.39745962155615,250.00000000000006" stroke="black" fill="transparent"></path><path d="M113.39745962155615,250.00000000000006L286.60254037844385,150" stroke="black" fill="transparent"></path><path d="M286.60254037844385,150L300,200" stroke="black" fill="transparent"></path></svg>